<svg xmlns="http://www.w3.org/2000/svg" viewBox="0 0 256 256">
  <path d="m181.8341 96.2092c-12.5729-9.5107-21.0486 13.2198-8.729 19.2978 8.5746 11.0901 1.5421 24.3642-5.8736 33.4323-3.936 14.3419 16.3144 17.4413 20.3385 4.379 12.1718-17.1303 9.9148-42.8545-5.7359-57.109zM204.9549 64.4378c-12.9167-9.6471-21.1236 13.9-8.1321 19.4585 23.6838 24.9888 22.1708 68.784-3.4893 91.849-11.3008 9.8093 6.9174 26.8279 14.7741 12.8997 32.9774-33.4087 31.7148-92.5737-3.1527-124.2073zM139.2616 32.9844c-7.6707-4.2145-13.9606 2.7779-18.7699 7.8702-15.3223 15.3131-30.6445 30.6261-45.9668 45.9392-11.9004.2329-23.8693-.4944-35.7216.4185-10.8427 2.4007-15.7708 14.1818-14.6466 24.3653.2101 13.4929-.4441 27.035.3727 40.4937 1.3865 10.1402 11.3163 17.4926 21.3715 16.1078 9.5464 0 19.0928 0 28.6391 0 17.1844 17.1825 34.3689 34.365 51.5533 51.5475 6.5029 10.5093 22.196 1.0978 20.3532-9.6808-.085-55.5128.171-111.0364-.1285-166.5424-.5514-4.2996-2.9058-8.7513-7.0565-10.519z"/>
</svg>
