<svg xmlns="http://www.w3.org/2000/svg" viewBox="0 0 256 256">
  <path
    d="M 128,23 A 105,105 0 0 0 23,128 105,105 0 0 0 128,233 105,105 0 0 0 233,128 105,105 0 0 0 128,23 Z m 3.00781,53 c 0.87112,-0.01065 1.74976,0.204669 2.57422,0.65625 2.19856,0.988935 3.5957,3.846822 3.5957,6.769531 v 89.146489 c 0,2.92551 -1.39663,5.57041 -3.60351,6.76953 -0.80288,0.442 -1.66699,0.6582 -2.51563,0.6582 -1.47159,0 -2.92471,-0.65037 -4.06445,-2.50781 L 101.20508,149.6582 H 85.175781 C 80.107766,149.6582 76,144.87737 76,138.72266 v -22.07618 c 0,-5.94536 4.107766,-10.93554 9.175781,-10.93554 H 101.19727 L 127,77.876953 c 1.12541,-1.215174 2.55595,-1.85921 4.00781,-1.876953 z m 32.96094,16.40625 c 0.87941,0.09959 1.74375,0.507962 2.47656,1.234375 C 175.0669,102.2069 180,114.74222 180,127.99805 c 0,13.2554 -4.93244,25.79252 -13.54883,34.36523 -0.85488,0.84864 -1.88264,1.26172 -2.91015,1.26172 -1.32704,0 -2.64091,-0.69642 -3.54883,-2.03906 -1.6068,-2.37952 -1.31874,-5.89076 0.64062,-7.8418 6.47504,-6.45631 10.18946,-15.83324 10.18946,-25.74609 0,-9.91286 -3.7078,-19.29204 -10.19532,-25.74024 -1.95935,-1.95229 -2.24742,-5.462277 -0.64062,-7.841794 1.0088,-1.487199 2.51674,-2.175749 3.98242,-2.009766 z m -11.57422,17.16016 c 0.88041,0.0979 1.74728,0.50409 2.48438,1.23047 4.30143,4.29478 6.76757,10.53841 6.76757,17.20117 0,6.66285 -2.46472,12.90661 -6.77343,17.1914 -0.84864,0.84136 -1.88302,1.25586 -2.9043,1.25586 -1.32704,0 -2.64611,-0.69604 -3.54883,-2.04492 -1.6068,-2.37952 -1.31911,-5.89076 0.64649,-7.8418 2.16215,-2.14759 3.40429,-5.26625 3.40429,-8.56054 0,-3.2966 -1.24252,-6.4062 -3.39843,-8.56836 -1.9656,-1.9524 -2.25237,-5.46413 -0.64454,-7.84375 0.99645,-1.49169 2.49946,-2.18276 3.9668,-2.01953 z" />
</svg>
